<svg fill="#ffffff" xmlns="http://www.w3.org/2000/svg"  viewBox="0 0 50 50" width="100px" height="100px"><path fill="none" stroke="#ffffff" stroke-linecap="round" stroke-linejoin="round" stroke-width="2" d="M26,1H7A1,1,0,0,0,6,2V4A1,1,0,0,0,7,5h4a3,3,0,0,1,3,3V42a3,3,0,0,1-3,3H7a1,1,0,0,0-1,1v2a1,1,0,0,0,1,1H43.438a2,2,0,0,0,1.941-1.515l3.31-13.242A1,1,0,0,0,47.719,33h-2a1,1,0,0,0-.949.684L42.6,40.214A7,7,0,0,1,35.955,45H23a3,3,0,0,1-3-3V27H30a4,4,0,0,1,4,4v2h4V16H34v3a4,4,0,0,1-4,4H20V8a3,3,0,0,1,3-3H36.414a5,5,0,0,1,4.969,5.552l-.26,2.338A1,1,0,0,0,42.117,14h1.957a1,1,0,0,0,1-.923l.763-9.924A2,2,0,0,0,43.84,1Z"/></svg>
